<?xml version="1.0" encoding="UTF-8"?>
<svg width="162px" height="162px" viewBox="0 0 162 162" version="1.1" xmlns="http://www.w3.org/2000/svg" xmlns:xlink="http://www.w3.org/1999/xlink">
    <title>Artboard Copy 12</title>
    <g id="Artboard-Copy-12" stroke="none" stroke-width="1" fill="none" fill-rule="evenodd">
        <g id="Group-2" transform="translate(-407.000000, 21.374025)"></g>
        <g id="Group" transform="translate(58.000000, 57.000000)" fill="#000000" fill-rule="nonzero">
            <path d="M27.5925926,5.38560562 C27.5925926,5.38560562 27.0740741,5.53410432 26.2222222,5.79397704 C26.0740741,5.31135627 25.8518519,4.75448614 25.5555556,4.16049135 C24.5925926,2.3042576 23.1481481,1.30189137 21.4444444,1.30189137 C21.4444444,1.30189137 21.4444444,1.30189137 21.4444444,1.30189137 C21.3333333,1.30189137 21.2222222,1.30189137 21.0740741,1.33901605 C21.037037,1.2647667 20.962963,1.22764203 20.9259259,1.15339268 C20.1851852,0.336649826 19.2222222,-0.0345969229 18.0740741,0.00252775206 C15.8518519,0.0767771019 13.6296296,1.67313812 11.8518519,4.53173809 C10.5925926,6.53647054 9.62962963,9.06094844 9.37037037,11.0285562 C6.81481481,11.8081744 5.03703704,12.3650445 5,12.4021692 C3.7037037,12.8105406 3.66666667,12.8476653 3.51851852,14.0727796 C3.40740741,15.0008964 0,41.1366676 0,41.1366676 L28,46 L28,5.34848094 C27.7777778,5.34848094 27.6666667,5.38560562 27.5925926,5.38560562 Z M21.1111111,7.39033806 C19.6296296,7.83583416 18,8.35557961 16.4074074,8.83820039 C16.8518519,7.09334067 17.7407407,5.34848094 18.7777778,4.19761602 C19.1851852,3.7892446 19.7407407,3.30662382 20.3703704,3.00962642 C21,4.34611472 21.1481481,6.16522379 21.1111111,7.39033806 Z M18.0740741,1.52463942 C18.5925926,1.52463942 19.037037,1.63601345 19.4074074,1.8587615 C18.8148148,2.1557589 18.2222222,2.63837967 17.6666667,3.1952498 C16.2592593,4.71736147 15.1851852,7.09334067 14.7407407,9.35794584 C13.4074074,9.76631726 12.0740741,10.1746887 10.8518519,10.5459354 C11.6666667,6.98196664 14.6666667,1.59888877 18.0740741,1.52463942 Z M13.7777778,21.9432106 C13.9259259,24.3191898 20.1851852,24.8389353 20.5555556,30.4447612 C20.8148148,34.8625975 18.2222222,37.8696962 14.4814815,38.0924442 C9.96296296,38.3894416 7.48148148,35.716465 7.48148148,35.716465 L8.44444444,31.6327508 C8.44444444,31.6327508 10.9259259,33.5261092 12.9259259,33.3776105 C14.2222222,33.3033612 14.7037037,32.2267456 14.6666667,31.4842521 C14.4814815,28.3657794 9.37037037,28.5514028 9.03703704,23.4281976 C8.74074074,19.1217353 11.5555556,14.7781484 17.7777778,14.369777 C20.1851852,14.2212783 21.4074074,14.8152731 21.4074074,14.8152731 L20,20.1612262 C20,20.1612262 18.4074074,19.4187327 16.5185185,19.5672314 C13.7777778,19.7528548 13.7407407,21.4977145 13.7777778,21.9432106 Z M22.5925926,6.94484197 C22.5925926,5.83110172 22.4444444,4.23474069 21.9259259,2.8982524 C23.6296296,3.23237447 24.4444444,5.12573289 24.8148148,6.27659782 C24.1481481,6.46222119 23.4074074,6.68496924 22.5925926,6.94484197 Z" id="Shape"></path>
            <path d="M29,46 L41,43.1137835 C41,43.1137835 35.8407643,9.33024977 35.8025478,9.10823312 C35.7643312,8.88621647 35.5732484,8.73820537 35.3821656,8.73820537 C35.1910828,8.73820537 31.8280255,8.66419981 31.8280255,8.66419981 C31.8280255,8.66419981 29.7643312,6.7400555 29,6 L29,46 Z" id="Path"></path>
        </g>
    </g>
</svg>