<?xml version="1.0" encoding="UTF-8"?>
<svg width="1276px" height="495px" viewBox="0 0 1276 495" version="1.1" xmlns="http://www.w3.org/2000/svg" xmlns:xlink="http://www.w3.org/1999/xlink">
    <title>Artboard Copy 13</title>
    <defs>
        <linearGradient x1="50.0000231%" y1="0%" x2="50.0000231%" y2="99.999951%" id="linearGradient-1">
            <stop stop-color="#FD4D36" offset="0%"></stop>
            <stop stop-color="#FC0195" offset="35.4164%"></stop>
            <stop stop-color="#CF02FF" offset="63.021%"></stop>
            <stop stop-color="#6153FD" offset="100%"></stop>
        </linearGradient>
    </defs>
    <g id="Artboard-Copy-13" stroke="none" stroke-width="1" fill="none" fill-rule="evenodd">
        <g id="Group-3" transform="translate(74.000000, -307.000000)" stroke="url(#linearGradient-1)" stroke-width="4.41">
            <g id="Group">
                <g id="Vector-2-Copy" transform="translate(396.000000, 590.000000)">
                    <path d="M293.525004,-6.3699046e-14 C293.509491,-6.3699046e-14 293.496564,5.18261636e-05 293.483637,0.000103652327 C293.517248,0.0002850439 293.550859,0.000777392455 293.584469,0.00160661107 C293.612909,0.00106243636 293.643935,0.000673740128 293.67496,0.000414609309 C293.633593,0.000155478491 293.592226,-6.3699046e-14 293.550859,-6.3699046e-14 M293.525004,0 L111.816418,0 C109.999366,0 108.32322,0.989853813 107.430724,2.5901421 L85.6154964,41.6954962 L67.957668,72.7852344 C67.5840709,73.1366158 67.2606315,73.5481155 67.0026039,74.010664 L42.0145158,118.802462 C40.1209343,122.196817 42.5463422,126.419095 46.4002098,126.419095 L149.549985,126.419095 C149.663744,126.413653 149.778021,126.415467 149.893073,126.417281 C149.914016,126.41754 149.935216,126.418058 149.956417,126.418317 L149.985891,126.418576 C150.000628,126.418836 150.015365,126.419095 150.030361,126.419095 C150.042512,126.419095 150.054405,126.419095 150.066557,126.419095 L153.206583,126.419095 L153.206583,126.424536 C155.492893,126.538295 157.312273,128.447571 157.312273,130.785967 C157.312273,131.682042 157.045196,132.515147 156.587055,133.208063 L152.406387,140.248647 C151.735205,141.78037 150.217289,142.849284 148.452721,142.849284 C148.350337,142.849284 148.248988,142.845656 148.148672,142.83866 L148.147121,142.841251 L30.0309683,142.841251 C28.213916,142.841251 26.5377706,143.831131 25.6450157,145.431264 L0.657031033,190.223062 C-0.60121043,192.478537 0.0475635781,195.089539 1.75530313,196.587574 C2.23870418,198.037152 3.25219946,199.896934 4.63732691,202.438489 L28.546146,246.310114 C29.5268061,248.109259 30.0170068,249.008702 30.8453841,249.504419 C31.6740199,250 32.6875152,250 34.7147643,250 L221.549775,250 C221.307002,249.972669 221.066555,249.920324 220.832831,249.842844 C222.360571,250.31524 224.15513,249.720275 224.999537,248.090083 L254.873862,190.393052 L254.969524,190.393052 C255.54039,189.351346 256.63843,188.646251 257.900128,188.646251 C259.438469,188.646251 260.733778,189.692621 261.126766,191.118877 L265.007522,197.816632 L265.113525,197.816632 L294.101559,248.186221 C295.46926,250.562969 298.871709,250.543275 300.21097,248.150461 L327.779593,198.947997 C328.39493,197.852651 328.389759,196.510871 327.771837,195.418635 L261.705906,78.9214521 C261.625757,78.7802259 261.540437,78.6480691 261.447361,78.5242046 L259.513447,75.0914987 L259.650476,74.8486931 C257.949251,71.4063993 257.352013,71.4069175 252.957529,71.4108045 L252.476118,71.4113228 L252.469138,71.4206515 L146.132024,71.4206515 L146.141848,71.3973297 L145.427489,71.3973297 L145.427489,71.3960341 C145.416113,71.3962932 145.404737,71.3965523 145.39362,71.3968114 L145.377849,71.3970706 L145.361819,71.3970706 C145.347599,71.3973297 145.333379,71.3973297 145.319417,71.3973297 C142.932533,71.3973297 140.997584,69.4421877 140.997584,67.0304572 C140.997584,66.1297184 141.267505,65.2924668 141.7303,64.5972188 L146.291804,56.9868058 L146.324381,56.9914701 C147.092517,55.7805518 148.436174,54.9782828 149.965207,54.9782828 L153.139361,54.9782828 L153.139878,54.9772463 L268.055764,54.9772463 C268.23416,54.9772463 268.412556,54.9673993 268.588366,54.9484827 C271.075567,55.1410169 272.07872,56.0630044 272.270043,56.5501703 L272.28297,56.5587216 L379.111061,247.969329 C380.468421,250.402567 383.943262,250.381318 385.272181,247.931495 L410.565611,201.292353 C411.149922,200.216183 411.144751,198.911978 410.550098,197.841249 L303.954698,5.5891408 C303.807327,5.32537154 303.636688,5.09026214 303.445365,4.88383853 C303.305751,4.63175607 303.166137,4.39208598 303.031693,4.16430999 C300.98919,0.747566498 299.458605,0 297.302342,0 L294.018825,0 L294.018825,0 C293.938676,0 293.858527,0 293.775792,0 C293.773207,0 293.770622,0 293.768036,0 L293.550859,0 M298.742436,0.982235367 C300.384195,1.76828279 299.936913,3.5272887 299.507729,4.30851629 L272.280385,52.5618879 C272.024426,53.1633305 270.522281,54.2573809 267.409403,54.2573809 M190.811911,194.050943 L257.150348,78.3306339 C257.905299,77.2930741 259.001528,74.9344654 258.225894,73.7992133 M188.644531,196.397631 L218.246867,246.894972 C218.572116,247.638937 220.195001,249.236219 222.355918,249.236219 M2.80915724,196.397372 L186.267988,196.397372 C187.492456,196.506466 190.049721,196.157158 190.914036,193.886395" id="Shape"></path>
                </g>
                <g id="Vector-2-Copy-2" transform="translate(551.000000, 314.000000)">
                    <path d="M293.525004,-6.3699046e-14 C293.509491,-6.3699046e-14 293.496564,5.18261636e-05 293.483637,0.000103652327 C293.517248,0.0002850439 293.550859,0.000777392455 293.584469,0.00160661107 C293.612909,0.00106243636 293.643935,0.000673740128 293.67496,0.000414609309 C293.633593,0.000155478491 293.592226,-6.3699046e-14 293.550859,-6.3699046e-14 M293.525004,0 L111.816418,0 C109.999366,0 108.32322,0.989853813 107.430724,2.5901421 L85.6154964,41.6954962 L67.957668,72.7852344 C67.5840709,73.1366158 67.2606315,73.5481155 67.0026039,74.010664 L42.0145158,118.802462 C40.1209343,122.196817 42.5463422,126.419095 46.4002098,126.419095 L149.549985,126.419095 C149.663744,126.413653 149.778021,126.415467 149.893073,126.417281 C149.914016,126.41754 149.935216,126.418058 149.956417,126.418317 L149.985891,126.418576 C150.000628,126.418836 150.015365,126.419095 150.030361,126.419095 C150.042512,126.419095 150.054405,126.419095 150.066557,126.419095 L153.206583,126.419095 L153.206583,126.424536 C155.492893,126.538295 157.312273,128.447571 157.312273,130.785967 C157.312273,131.682042 157.045196,132.515147 156.587055,133.208063 L152.406387,140.248647 C151.735205,141.78037 150.217289,142.849284 148.452721,142.849284 C148.350337,142.849284 148.248988,142.845656 148.148672,142.83866 L148.147121,142.841251 L30.0309683,142.841251 C28.213916,142.841251 26.5377706,143.831131 25.6450157,145.431264 L0.657031033,190.223062 C-0.60121043,192.478537 0.0475635781,195.089539 1.75530313,196.587574 C2.23870418,198.037152 3.25219946,199.896934 4.63732691,202.438489 L28.546146,246.310114 C29.5268061,248.109259 30.0170068,249.008702 30.8453841,249.504419 C31.6740199,250 32.6875152,250 34.7147643,250 L221.549775,250 C221.307002,249.972669 221.066555,249.920324 220.832831,249.842844 C222.360571,250.31524 224.15513,249.720275 224.999537,248.090083 L254.873862,190.393052 L254.969524,190.393052 C255.54039,189.351346 256.63843,188.646251 257.900128,188.646251 C259.438469,188.646251 260.733778,189.692621 261.126766,191.118877 L265.007522,197.816632 L265.113525,197.816632 L294.101559,248.186221 C295.46926,250.562969 298.871709,250.543275 300.21097,248.150461 L327.779593,198.947997 C328.39493,197.852651 328.389759,196.510871 327.771837,195.418635 L261.705906,78.9214521 C261.625757,78.7802259 261.540437,78.6480691 261.447361,78.5242046 L259.513447,75.0914987 L259.650476,74.8486931 C257.949251,71.4063993 257.352013,71.4069175 252.957529,71.4108045 L252.476118,71.4113228 L252.469138,71.4206515 L146.132024,71.4206515 L146.141848,71.3973297 L145.427489,71.3973297 L145.427489,71.3960341 C145.416113,71.3962932 145.404737,71.3965523 145.39362,71.3968114 L145.377849,71.3970706 L145.361819,71.3970706 C145.347599,71.3973297 145.333379,71.3973297 145.319417,71.3973297 C142.932533,71.3973297 140.997584,69.4421877 140.997584,67.0304572 C140.997584,66.1297184 141.267505,65.2924668 141.7303,64.5972188 L146.291804,56.9868058 L146.324381,56.9914701 C147.092517,55.7805518 148.436174,54.9782828 149.965207,54.9782828 L153.139361,54.9782828 L153.139878,54.9772463 L268.055764,54.9772463 C268.23416,54.9772463 268.412556,54.9673993 268.588366,54.9484827 C271.075567,55.1410169 272.07872,56.0630044 272.270043,56.5501703 L272.28297,56.5587216 L379.111061,247.969329 C380.468421,250.402567 383.943262,250.381318 385.272181,247.931495 L410.565611,201.292353 C411.149922,200.216183 411.144751,198.911978 410.550098,197.841249 L303.954698,5.5891408 C303.807327,5.32537154 303.636688,5.09026214 303.445365,4.88383853 C303.305751,4.63175607 303.166137,4.39208598 303.031693,4.16430999 C300.98919,0.747566498 299.458605,0 297.302342,0 L294.018825,0 L294.018825,0 C293.938676,0 293.858527,0 293.775792,0 C293.773207,0 293.770622,0 293.768036,0 L293.550859,0 M298.742436,0.982235367 C300.384195,1.76828279 299.936913,3.5272887 299.507729,4.30851629 L272.280385,52.5618879 C272.024426,53.1633305 270.522281,54.2573809 267.409403,54.2573809 M190.811911,194.050943 L257.150348,78.3306339 C257.905299,77.2930741 259.001528,74.9344654 258.225894,73.7992133 M188.644531,196.397631 L218.246867,246.894972 C218.572116,247.638937 220.195001,249.236219 222.355918,249.236219 M2.80915724,196.397372 L186.267988,196.397372 C187.492456,196.506466 190.049721,196.157158 190.914036,193.886395" id="Shape"></path>
                </g>
                <g id="Vector-2-Copy-3" transform="translate(358.500000, 484.000000) rotate(-180.000000) translate(-358.500000, -484.000000) translate(153.000000, 359.000000)">
                    <path d="M293.525004,-6.3699046e-14 C293.509491,-6.3699046e-14 293.496564,5.18261636e-05 293.483637,0.000103652327 C293.517248,0.0002850439 293.550859,0.000777392455 293.584469,0.00160661107 C293.612909,0.00106243636 293.643935,0.000673740128 293.67496,0.000414609309 C293.633593,0.000155478491 293.592226,-6.3699046e-14 293.550859,-6.3699046e-14 M293.525004,0 L111.816418,0 C109.999366,0 108.32322,0.989853813 107.430724,2.5901421 L85.6154964,41.6954962 L67.957668,72.7852344 C67.5840709,73.1366158 67.2606315,73.5481155 67.0026039,74.010664 L42.0145158,118.802462 C40.1209343,122.196817 42.5463422,126.419095 46.4002098,126.419095 L149.549985,126.419095 C149.663744,126.413653 149.778021,126.415467 149.893073,126.417281 C149.914016,126.41754 149.935216,126.418058 149.956417,126.418317 L149.985891,126.418576 C150.000628,126.418836 150.015365,126.419095 150.030361,126.419095 C150.042512,126.419095 150.054405,126.419095 150.066557,126.419095 L153.206583,126.419095 L153.206583,126.424536 C155.492893,126.538295 157.312273,128.447571 157.312273,130.785967 C157.312273,131.682042 157.045196,132.515147 156.587055,133.208063 L152.406387,140.248647 C151.735205,141.78037 150.217289,142.849284 148.452721,142.849284 C148.350337,142.849284 148.248988,142.845656 148.148672,142.83866 L148.147121,142.841251 L30.0309683,142.841251 C28.213916,142.841251 26.5377706,143.831131 25.6450157,145.431264 L0.657031033,190.223062 C-0.60121043,192.478537 0.0475635781,195.089539 1.75530313,196.587574 C2.23870418,198.037152 3.25219946,199.896934 4.63732691,202.438489 L28.546146,246.310114 C29.5268061,248.109259 30.0170068,249.008702 30.8453841,249.504419 C31.6740199,250 32.6875152,250 34.7147643,250 L221.549775,250 C221.307002,249.972669 221.066555,249.920324 220.832831,249.842844 C222.360571,250.31524 224.15513,249.720275 224.999537,248.090083 L254.873862,190.393052 L254.969524,190.393052 C255.54039,189.351346 256.63843,188.646251 257.900128,188.646251 C259.438469,188.646251 260.733778,189.692621 261.126766,191.118877 L265.007522,197.816632 L265.113525,197.816632 L294.101559,248.186221 C295.46926,250.562969 298.871709,250.543275 300.21097,248.150461 L327.779593,198.947997 C328.39493,197.852651 328.389759,196.510871 327.771837,195.418635 L261.705906,78.9214521 C261.625757,78.7802259 261.540437,78.6480691 261.447361,78.5242046 L259.513447,75.0914987 L259.650476,74.8486931 C257.949251,71.4063993 257.352013,71.4069175 252.957529,71.4108045 L252.476118,71.4113228 L252.469138,71.4206515 L146.132024,71.4206515 L146.141848,71.3973297 L145.427489,71.3973297 L145.427489,71.3960341 C145.416113,71.3962932 145.404737,71.3965523 145.39362,71.3968114 L145.377849,71.3970706 L145.361819,71.3970706 C145.347599,71.3973297 145.333379,71.3973297 145.319417,71.3973297 C142.932533,71.3973297 140.997584,69.4421877 140.997584,67.0304572 C140.997584,66.1297184 141.267505,65.2924668 141.7303,64.5972188 L146.291804,56.9868058 L146.324381,56.9914701 C147.092517,55.7805518 148.436174,54.9782828 149.965207,54.9782828 L153.139361,54.9782828 L153.139878,54.9772463 L268.055764,54.9772463 C268.23416,54.9772463 268.412556,54.9673993 268.588366,54.9484827 C271.075567,55.1410169 272.07872,56.0630044 272.270043,56.5501703 L272.28297,56.5587216 L379.111061,247.969329 C380.468421,250.402567 383.943262,250.381318 385.272181,247.931495 L410.565611,201.292353 C411.149922,200.216183 411.144751,198.911978 410.550098,197.841249 L303.954698,5.5891408 C303.807327,5.32537154 303.636688,5.09026214 303.445365,4.88383853 C303.305751,4.63175607 303.166137,4.39208598 303.031693,4.16430999 C300.98919,0.747566498 299.458605,0 297.302342,0 L294.018825,0 L294.018825,0 C293.938676,0 293.858527,0 293.775792,0 C293.773207,0 293.770622,0 293.768036,0 L293.550859,0 M298.742436,0.982235367 C300.384195,1.76828279 299.936913,3.5272887 299.507729,4.30851629 L272.280385,52.5618879 C272.024426,53.1633305 270.522281,54.2573809 267.409403,54.2573809 M190.811911,194.050943 L257.150348,78.3306339 C257.905299,77.2930741 259.001528,74.9344654 258.225894,73.7992133 M188.644531,196.397631 L218.246867,246.894972 C218.572116,247.638937 220.195001,249.236219 222.355918,249.236219 M2.80915724,196.397372 L186.267988,196.397372 C187.492456,196.506466 190.049721,196.157158 190.914036,193.886395" id="Shape"></path>
                </g>
                <g id="Vector-2-Copy-5" transform="translate(978.500000, 701.000000) rotate(-180.000000) translate(-978.500000, -701.000000) translate(773.000000, 576.000000)">
                    <path d="M293.525004,-6.3699046e-14 C293.509491,-6.3699046e-14 293.496564,5.18261636e-05 293.483637,0.000103652327 C293.517248,0.0002850439 293.550859,0.000777392455 293.584469,0.00160661107 C293.612909,0.00106243636 293.643935,0.000673740128 293.67496,0.000414609309 C293.633593,0.000155478491 293.592226,-6.3699046e-14 293.550859,-6.3699046e-14 M293.525004,0 L111.816418,0 C109.999366,0 108.32322,0.989853813 107.430724,2.5901421 L85.6154964,41.6954962 L67.957668,72.7852344 C67.5840709,73.1366158 67.2606315,73.5481155 67.0026039,74.010664 L42.0145158,118.802462 C40.1209343,122.196817 42.5463422,126.419095 46.4002098,126.419095 L149.549985,126.419095 C149.663744,126.413653 149.778021,126.415467 149.893073,126.417281 C149.914016,126.41754 149.935216,126.418058 149.956417,126.418317 L149.985891,126.418576 C150.000628,126.418836 150.015365,126.419095 150.030361,126.419095 C150.042512,126.419095 150.054405,126.419095 150.066557,126.419095 L153.206583,126.419095 L153.206583,126.424536 C155.492893,126.538295 157.312273,128.447571 157.312273,130.785967 C157.312273,131.682042 157.045196,132.515147 156.587055,133.208063 L152.406387,140.248647 C151.735205,141.78037 150.217289,142.849284 148.452721,142.849284 C148.350337,142.849284 148.248988,142.845656 148.148672,142.83866 L148.147121,142.841251 L30.0309683,142.841251 C28.213916,142.841251 26.5377706,143.831131 25.6450157,145.431264 L0.657031033,190.223062 C-0.60121043,192.478537 0.0475635781,195.089539 1.75530313,196.587574 C2.23870418,198.037152 3.25219946,199.896934 4.63732691,202.438489 L28.546146,246.310114 C29.5268061,248.109259 30.0170068,249.008702 30.8453841,249.504419 C31.6740199,250 32.6875152,250 34.7147643,250 L221.549775,250 C221.307002,249.972669 221.066555,249.920324 220.832831,249.842844 C222.360571,250.31524 224.15513,249.720275 224.999537,248.090083 L254.873862,190.393052 L254.969524,190.393052 C255.54039,189.351346 256.63843,188.646251 257.900128,188.646251 C259.438469,188.646251 260.733778,189.692621 261.126766,191.118877 L265.007522,197.816632 L265.113525,197.816632 L294.101559,248.186221 C295.46926,250.562969 298.871709,250.543275 300.21097,248.150461 L327.779593,198.947997 C328.39493,197.852651 328.389759,196.510871 327.771837,195.418635 L261.705906,78.9214521 C261.625757,78.7802259 261.540437,78.6480691 261.447361,78.5242046 L259.513447,75.0914987 L259.650476,74.8486931 C257.949251,71.4063993 257.352013,71.4069175 252.957529,71.4108045 L252.476118,71.4113228 L252.469138,71.4206515 L146.132024,71.4206515 L146.141848,71.3973297 L145.427489,71.3973297 L145.427489,71.3960341 C145.416113,71.3962932 145.404737,71.3965523 145.39362,71.3968114 L145.377849,71.3970706 L145.361819,71.3970706 C145.347599,71.3973297 145.333379,71.3973297 145.319417,71.3973297 C142.932533,71.3973297 140.997584,69.4421877 140.997584,67.0304572 C140.997584,66.1297184 141.267505,65.2924668 141.7303,64.5972188 L146.291804,56.9868058 L146.324381,56.9914701 C147.092517,55.7805518 148.436174,54.9782828 149.965207,54.9782828 L153.139361,54.9782828 L153.139878,54.9772463 L268.055764,54.9772463 C268.23416,54.9772463 268.412556,54.9673993 268.588366,54.9484827 C271.075567,55.1410169 272.07872,56.0630044 272.270043,56.5501703 L272.28297,56.5587216 L379.111061,247.969329 C380.468421,250.402567 383.943262,250.381318 385.272181,247.931495 L410.565611,201.292353 C411.149922,200.216183 411.144751,198.911978 410.550098,197.841249 L303.954698,5.5891408 C303.807327,5.32537154 303.636688,5.09026214 303.445365,4.88383853 C303.305751,4.63175607 303.166137,4.39208598 303.031693,4.16430999 C300.98919,0.747566498 299.458605,0 297.302342,0 L294.018825,0 L294.018825,0 C293.938676,0 293.858527,0 293.775792,0 C293.773207,0 293.770622,0 293.768036,0 L293.550859,0 M298.742436,0.982235367 C300.384195,1.76828279 299.936913,3.5272887 299.507729,4.30851629 L272.280385,52.5618879 C272.024426,53.1633305 270.522281,54.2573809 267.409403,54.2573809 M190.811911,194.050943 L257.150348,78.3306339 C257.905299,77.2930741 259.001528,74.9344654 258.225894,73.7992133 M188.644531,196.397631 L218.246867,246.894972 C218.572116,247.638937 220.195001,249.236219 222.355918,249.236219 M2.80915724,196.397372 L186.267988,196.397372 C187.492456,196.506466 190.049721,196.157158 190.914036,193.886395" id="Shape"></path>
                </g>
                <g id="Vector-2-Copy-4" transform="translate(205.500000, 759.000000) rotate(-180.000000) translate(-205.500000, -759.000000) translate(0.000000, 634.000000)">
                    <path d="M293.525004,-6.3699046e-14 C293.509491,-6.3699046e-14 293.496564,5.18261636e-05 293.483637,0.000103652327 C293.517248,0.0002850439 293.550859,0.000777392455 293.584469,0.00160661107 C293.612909,0.00106243636 293.643935,0.000673740128 293.67496,0.000414609309 C293.633593,0.000155478491 293.592226,-6.3699046e-14 293.550859,-6.3699046e-14 M293.525004,0 L111.816418,0 C109.999366,0 108.32322,0.989853813 107.430724,2.5901421 L85.6154964,41.6954962 L67.957668,72.7852344 C67.5840709,73.1366158 67.2606315,73.5481155 67.0026039,74.010664 L42.0145158,118.802462 C40.1209343,122.196817 42.5463422,126.419095 46.4002098,126.419095 L149.549985,126.419095 C149.663744,126.413653 149.778021,126.415467 149.893073,126.417281 C149.914016,126.41754 149.935216,126.418058 149.956417,126.418317 L149.985891,126.418576 C150.000628,126.418836 150.015365,126.419095 150.030361,126.419095 C150.042512,126.419095 150.054405,126.419095 150.066557,126.419095 L153.206583,126.419095 L153.206583,126.424536 C155.492893,126.538295 157.312273,128.447571 157.312273,130.785967 C157.312273,131.682042 157.045196,132.515147 156.587055,133.208063 L152.406387,140.248647 C151.735205,141.78037 150.217289,142.849284 148.452721,142.849284 C148.350337,142.849284 148.248988,142.845656 148.148672,142.83866 L148.147121,142.841251 L30.0309683,142.841251 C28.213916,142.841251 26.5377706,143.831131 25.6450157,145.431264 L0.657031033,190.223062 C-0.60121043,192.478537 0.0475635781,195.089539 1.75530313,196.587574 C2.23870418,198.037152 3.25219946,199.896934 4.63732691,202.438489 L28.546146,246.310114 C29.5268061,248.109259 30.0170068,249.008702 30.8453841,249.504419 C31.6740199,250 32.6875152,250 34.7147643,250 L221.549775,250 C221.307002,249.972669 221.066555,249.920324 220.832831,249.842844 C222.360571,250.31524 224.15513,249.720275 224.999537,248.090083 L254.873862,190.393052 L254.969524,190.393052 C255.54039,189.351346 256.63843,188.646251 257.900128,188.646251 C259.438469,188.646251 260.733778,189.692621 261.126766,191.118877 L265.007522,197.816632 L265.113525,197.816632 L294.101559,248.186221 C295.46926,250.562969 298.871709,250.543275 300.21097,248.150461 L327.779593,198.947997 C328.39493,197.852651 328.389759,196.510871 327.771837,195.418635 L261.705906,78.9214521 C261.625757,78.7802259 261.540437,78.6480691 261.447361,78.5242046 L259.513447,75.0914987 L259.650476,74.8486931 C257.949251,71.4063993 257.352013,71.4069175 252.957529,71.4108045 L252.476118,71.4113228 L252.469138,71.4206515 L146.132024,71.4206515 L146.141848,71.3973297 L145.427489,71.3973297 L145.427489,71.3960341 C145.416113,71.3962932 145.404737,71.3965523 145.39362,71.3968114 L145.377849,71.3970706 L145.361819,71.3970706 C145.347599,71.3973297 145.333379,71.3973297 145.319417,71.3973297 C142.932533,71.3973297 140.997584,69.4421877 140.997584,67.0304572 C140.997584,66.1297184 141.267505,65.2924668 141.7303,64.5972188 L146.291804,56.9868058 L146.324381,56.9914701 C147.092517,55.7805518 148.436174,54.9782828 149.965207,54.9782828 L153.139361,54.9782828 L153.139878,54.9772463 L268.055764,54.9772463 C268.23416,54.9772463 268.412556,54.9673993 268.588366,54.9484827 C271.075567,55.1410169 272.07872,56.0630044 272.270043,56.5501703 L272.28297,56.5587216 L379.111061,247.969329 C380.468421,250.402567 383.943262,250.381318 385.272181,247.931495 L410.565611,201.292353 C411.149922,200.216183 411.144751,198.911978 410.550098,197.841249 L303.954698,5.5891408 C303.807327,5.32537154 303.636688,5.09026214 303.445365,4.88383853 C303.305751,4.63175607 303.166137,4.39208598 303.031693,4.16430999 C300.98919,0.747566498 299.458605,0 297.302342,0 L294.018825,0 L294.018825,0 C293.938676,0 293.858527,0 293.775792,0 C293.773207,0 293.770622,0 293.768036,0 L293.550859,0 M298.742436,0.982235367 C300.384195,1.76828279 299.936913,3.5272887 299.507729,4.30851629 L272.280385,52.5618879 C272.024426,53.1633305 270.522281,54.2573809 267.409403,54.2573809 M190.811911,194.050943 L257.150348,78.3306339 C257.905299,77.2930741 259.001528,74.9344654 258.225894,73.7992133 M188.644531,196.397631 L218.246867,246.894972 C218.572116,247.638937 220.195001,249.236219 222.355918,249.236219 M2.80915724,196.397372 L186.267988,196.397372 C187.492456,196.506466 190.049721,196.157158 190.914036,193.886395" id="Shape"></path>
                </g>
            </g>
        </g>
    </g>
</svg>