<?xml version="1.0" encoding="UTF-8"?>
<svg width="162px" height="162px" viewBox="0 0 162 162" version="1.1" xmlns="http://www.w3.org/2000/svg" xmlns:xlink="http://www.w3.org/1999/xlink">
    <title>Artboard Copy 11</title>
    <g id="Artboard-Copy-11" stroke="none" stroke-width="1" fill="none" fill-rule="evenodd">
        <g id="Group-2" transform="translate(-407.000000, 21.374025)">
            <path d="M439.139539,37.8293781 C435.844569,44.7346436 434,52.4648981 434,60.6259747 C434,89.8970665 457.728908,113.625975 487,113.625975 C491.857136,113.625975 496.561669,112.972603 501.030503,111.748955" id="Path" stroke="#080808" stroke-width="3" stroke-linecap="round"></path>
            <g id="Group" transform="translate(438.612797, 0.000000)" fill="#000000" fill-rule="nonzero">
                <path d="M80.2902625,110.648154 C83.3663942,108.713375 84.2228515,105.539093 82.7044173,103.124914 C80.9533198,100.34082 78.6717195,100.471652 75.1192509,102.081094 C72.4846537,103.249083 71.6622756,102.978367 70.9520402,101.849154 C70.2785412,100.778349 70.618675,99.5047423 72.1956792,98.5128619 C73.7921526,97.508736 75.0211817,97.6051962 76.1926889,98.9061946 L78.5679298,97.4122513 C76.6177363,94.9164087 73.9693904,94.6801458 70.9711355,96.5659431 C68.0702265,98.3905132 67.2009062,101.328345 68.6336224,103.60624 C70.2745109,106.215112 72.4882779,106.235629 76.099154,104.58945 C78.5902431,103.538894 79.5388622,103.621525 80.3470611,104.906491 C81.1552599,106.191457 80.6037846,107.733846 79.0657188,108.701236 C76.7099471,110.182934 75.4106144,109.3699 74.3537203,108.078327 L71.8616642,109.645743 C73.7094901,112.151629 76.4937709,113.036015 80.2902625,110.648154 Z M92.2943816,101.518564 C92.8925319,100.91324 93.2146931,100.39088 93.4073306,99.9668741 L91.8367601,98.4149165 C91.6764551,98.806202 91.4345434,99.1491826 91.0465539,99.5418252 C90.4322374,100.163509 89.7330182,100.183941 88.9804531,99.4402946 L84.4814232,94.9945827 L86.3405391,93.1131702 L84.8517692,91.6420437 L82.9926533,93.5234562 L81.1112408,91.6643403 L79.1551275,93.6439135 L81.03654,95.5030294 L79.9049043,96.648237 L81.3936742,98.1193635 L82.5253099,96.9741559 L87.2043011,101.597696 C88.8239519,103.198153 90.6130941,103.220015 92.2943816,101.518564 Z M99.5596254,91.9652917 C101.423922,88.9536206 100.743123,85.4214284 97.555445,83.4481795 L97.3989945,83.351333 C94.2699856,81.4144016 90.7852915,82.3680539 88.9331008,85.3601687 C87.0688044,88.3718398 87.788716,91.9282436 90.9568375,93.8893867 L91.113288,93.9862332 C94.2227406,95.9110588 97.6953289,94.9769628 99.5596254,91.9652917 Z M97.7334384,90.8077882 C96.6197029,92.6069683 94.6678219,92.8323625 92.5752972,91.5370397 L92.4188467,91.4401931 C90.3067657,90.1327644 89.701426,88.2702892 90.7909499,86.5102217 C91.8804738,84.7501542 93.8249043,84.4930979 95.9369853,85.8005265 L96.0738795,85.8852673 C98.1664042,87.1805901 98.8229623,89.0477207 97.7334384,90.8077882 Z M105.666264,79.7351168 L99.7349684,77.7458285 C97.3144765,76.9340233 97.0411324,75.2897633 97.7945635,72.9709889 L95.3304591,72.1445566 C94.708672,74.0708188 95.2007507,75.4245531 96.3986146,76.6268538 L94.2616037,75.9101249 L93.3766629,78.5486792 L104.781323,82.3736711 L105.666264,79.7351168 Z M108.728238,66.4454805 C109.032371,63.3785232 107.861106,61.2053352 105.382038,60.5665821 L105.116489,63.2444478 C106.263337,63.5661896 106.840835,64.5017437 106.67515,66.1725487 C106.470882,68.2324454 105.075686,69.2497321 102.800721,69.1165877 L103.669997,60.3505829 L102.868926,60.2711452 C98.5889184,59.8467206 96.5610133,62.3498233 96.2659588,65.3252296 C95.927781,68.7355031 98.1477259,71.5211645 101.85554,71.8888478 L102.038642,71.907005 C105.815119,72.2814972 108.378712,69.9701926 108.728238,66.4454805 Z M101.543732,62.9132702 L100.951353,68.8869706 C99.1246821,68.4284761 98.1143956,67.1957639 98.28008,65.5249588 C98.4503038,63.8083783 99.4702173,62.8463282 101.543732,62.9132702 Z M108.783911,52.9240039 L98.9162772,54.0875741 L98.5957568,51.3694064 L96.5171579,51.6145103 L96.8376784,54.332678 L95.1245475,54.5346867 C94.096669,54.6558919 93.3118641,54.2852474 93.1798851,53.1660019 C93.1206292,52.6634835 93.1608207,52.2187165 93.2373211,51.8854649 L91.090197,52.1386491 C90.9895607,52.6600217 90.9695176,53.0792534 91.0476276,53.741664 C91.3492939,56.2999395 92.9378629,57.5948173 95.5646636,57.2850706 L97.1635858,57.0965292 L97.3548207,58.7182931 L99.4334195,58.4731892 L99.2421846,56.8514253 L109.109819,55.6878551 L108.783911,52.9240039 Z M106.802729,43.0420959 L100.826857,44.8931712 C98.3881732,45.6485733 97.2056419,44.47387 96.4622969,42.1518426 L93.9796732,42.9208555 C94.6005206,44.8474207 95.7908211,45.6585451 97.4654281,45.9344011 L95.3123563,46.6013326 L96.1358126,49.2597172 L107.626186,45.7004805 L106.802729,43.0420959 Z M101.451175,30.4213616 C99.6577971,27.3669289 96.2161845,26.3204244 92.983246,28.2186103 L92.8245742,28.3117728 C89.6511376,30.1750227 88.8681128,33.7019787 90.6498455,36.7365774 C92.4432236,39.7910101 95.9245042,40.8142239 99.1376087,38.9276834 L99.2962805,38.8345209 C102.449883,36.9829162 103.244553,33.4757943 101.451175,30.4213616 Z M99.5751359,31.4961869 C100.646505,33.320913 99.9348296,35.1523497 97.8125939,36.3983981 L97.6539221,36.4915606 C95.5118524,37.7492543 93.5821516,37.4153308 92.5340735,35.6302727 C91.4859954,33.8452147 92.1661912,32.0055892 94.3082608,30.7478955 L94.4470987,30.6663783 C96.5693344,29.4203299 98.5270578,29.7111289 99.5751359,31.4961869 Z M93.3578057,19.4432698 L88.4323906,24.5347668 C87.1050872,25.9068261 85.5242438,25.7215827 84.400147,24.6341534 C83.2099269,23.4827577 83.2566381,22.3759162 84.5199751,21.0699802 L89.6053062,15.8131749 L87.6050753,13.8781904 L82.3438364,19.3168349 C80.0410449,21.6972751 80.2888386,23.889035 82.0245763,25.5681537 C83.446228,26.943432 85.0926556,27.1601193 86.3214984,26.716837 L84.994195,28.0888962 L86.994426,30.0238807 L95.3580367,21.3782543 L93.3578057,19.4432698 Z M80.0718146,8.10230556 C79.343213,7.66260014 78.7599192,7.47176956 78.302585,7.38381841 L77.1617277,9.27424393 C77.5796781,9.33842721 77.9697846,9.49326216 78.442391,9.77847648 C79.1906845,10.2300658 79.3743444,10.9050429 78.8276837,11.8108718 L75.5596029,17.2261532 L73.2950306,15.8595012 L72.213593,17.6514671 L74.4781652,19.0181191 L73.1115133,21.2826913 L75.4942371,22.7206468 L76.8608891,20.4560746 L78.2393243,21.2879497 L79.320762,19.4959839 L77.9423267,18.6641087 L81.3411307,13.0322161 C82.5176398,11.0827147 82.1197755,9.33823429 80.0718146,8.10230556 Z M70.1923224,3.49324141 C67.2841897,2.47270825 65.1919324,3.22536579 64.3846449,5.525829 C63.5392779,7.93480464 64.8950816,9.14184123 67.4197846,10.4909465 C69.1144678,11.4269025 69.5427911,11.9428377 69.2533862,12.7675321 C68.9715972,13.570524 68.1084222,13.8769926 66.9798931,13.4809648 C65.764554,13.0544733 65.3461372,12.3713889 65.4946765,11.2535105 L63.0639984,10.4005275 C62.4474522,13.0604275 63.9875265,14.5758799 66.3096922,15.3907833 C68.4365356,16.1371434 70.9594067,15.7549743 71.7590782,13.4762136 C72.5054383,11.3493702 71.6956325,10.1145615 68.86824,8.58611004 C67.2961558,7.71755198 66.6584236,7.10375508 66.9859081,6.17054831 C67.3210085,5.21563905 68.1255467,4.93734359 69.5362081,5.43237833 C71.0770844,5.97310859 71.426958,6.85151538 71.1535291,8.04744251 L73.6276122,8.91565729 C74.3644668,6.46860206 73.1221576,4.52139049 70.1923224,3.49324141 Z M46.7698397,0.0670847183 L47.0752253,14.0937607 L42.4993097,14.1933865 L42.5518761,16.6078144 L54.7849771,16.341478 L54.7324108,13.9270502 L50.1564951,14.026676 L49.8511095,0 L46.7698397,0.0670847183 Z M34.3334764,1.82426704 C31.3629096,2.64552039 29.7576466,4.52108422 30.0549469,7.06379804 L32.6486507,6.34673356 C32.5355998,5.1609859 33.2002654,4.28520931 34.8185592,3.8378101 C36.813716,3.28622203 38.2653468,4.22121511 38.9607673,6.39137255 L30.4702668,8.73868621 L30.6847732,9.51458052 C31.8308507,13.660073 34.8964687,14.6499759 37.7783619,13.8532376 C41.0814548,12.9400529 42.8802425,9.86557284 41.8873839,6.27429062 L41.8383539,6.09694335 C40.8271091,2.43915591 37.7474113,0.880438573 34.3334764,1.82426704 Z M33.6269051,9.79887656 L39.4128598,8.19927117 C39.6432681,10.0684574 38.8573251,11.4550184 37.2390313,11.9024176 C35.5764007,12.3620744 34.3115036,11.7572608 33.6269051,9.79887656 Z M21.6694124,6.60382536 C20.0798873,7.53065318 19.5018854,8.63978204 19.3476779,9.92779176 L18.6062156,8.65617164 L16.241797,10.034828 L20.2155712,16.8499171 C21.872276,19.6911933 24.2563266,19.5790564 26.5810071,18.2235707 C28.9056876,16.868085 30.2421341,14.730984 29.0274124,12.1911047 L26.7027318,13.5465904 C27.1859555,14.6492938 26.917575,15.6045115 25.6658239,16.3343884 C24.2551203,17.1569481 23.3727756,16.7395792 22.5618013,15.3487447 L22.2489969,14.81228 L23.5404861,14.0592323 C26.5208457,12.3214302 28.35564,10.0801203 26.9422276,7.65609447 C25.6794247,5.49036646 23.5768426,5.49163197 21.6694124,6.60382536 Z M22.1011348,8.66840904 C23.2932787,7.97328817 24.1061113,8.27144269 24.6158666,9.14568152 C25.3573289,10.4173016 24.4283464,11.5180875 22.6003925,12.5839395 L21.3685105,13.3022311 L20.7660724,12.2690397 C19.9898541,10.9378124 20.6308241,9.52572477 22.1011348,8.66840904 Z M10.0193209,15.2737766 L15.4147415,20.0398061 C16.7937627,21.2579606 16.6457921,22.815115 15.7321762,23.8493809 C14.8337873,24.8664091 13.7472253,24.9500044 12.4199174,23.7775306 L6.85211917,18.8592318 L5.00966046,20.9450014 L10.405081,25.7110309 C11.7841023,26.9291855 11.6361317,28.4863398 10.7225158,29.5206058 C9.80889988,30.5548717 8.73756489,30.6212292 7.41025695,29.4487555 L1.84245871,24.5304566 L0,26.6162262 L5.70570036,31.6563405 C8.18793858,33.8490187 10.3926674,33.4028619 11.8544528,31.7480365 C12.8442034,30.6275817 13.4406472,28.9448816 12.9292697,27.2656204 C14.4456247,27.8071891 15.7677742,27.3179307 16.8032056,26.1457627 C17.9756793,24.8184547 18.1196282,23.196371 17.655651,22.0193072 L19.0346722,23.2374617 L20.877131,21.1516921 L11.8617796,13.1880069 L10.0193209,15.2737766 Z" id="StorefrontsTeam"></path>
            </g>
        </g>
    </g>
</svg>