<?xml version="1.0" encoding="UTF-8"?>
<svg width="330px" height="124px" viewBox="0 0 330 124" version="1.1" xmlns="http://www.w3.org/2000/svg" xmlns:xlink="http://www.w3.org/1999/xlink">
    <title>THANKYOU</title>
    <g id="Page-1" stroke="none" stroke-width="1" fill="none" fill-rule="evenodd">
        <path d="M25.778,123 L25.778,16.86 L33.26,16.86 L33.26,1.2 L0.896,1.2 L0.896,16.86 L8.378,16.86 L8.378,123 L25.778,123 Z M52.226,123 L52.226,68.364 L54.662,68.364 L54.662,123 L72.062,123 L72.062,1.2 L54.662,1.2 L54.662,52.704 L52.226,52.704 L52.226,1.2 L34.826,1.2 L34.826,123 L52.226,123 Z M91.028,123 L91.028,82.806 L93.986,82.806 L93.986,123 L111.386,123 L106.688,1.2 L78.326,1.2 L73.628,123 L91.028,123 Z M93.986,68.364 L91.028,68.364 L91.724,15.642 L93.464,15.642 L93.986,68.364 Z M130.352,123 L130.352,95.682 L126.524,52.53 L128.96,52.53 L135.224,123 L152.624,123 L152.624,1.2 L135.224,1.2 L135.224,29.91 L138.53,68.19 L136.094,68.19 L130.352,1.2 L112.952,1.2 L112.952,123 L130.352,123 Z M172.46,123 L172.46,68.364 L174.2,68.364 L176.114,123 L193.688,123 L191.6,73.41 C191.368,67.958 189.802,63.666 186.902,60.534 C189.802,57.402 191.368,53.168 191.6,47.832 L191.6,47.832 L193.688,1.2 L176.288,1.2 L174.2,52.704 L172.46,52.704 L172.46,1.2 L155.06,1.2 L155.06,123 L172.46,123 Z M239.972,123 L239.972,73.41 C243.104,72.018 245.54,69.901 247.28,67.059 C249.02,64.217 249.89,60.824 249.89,56.88 L249.89,56.88 L249.89,1.2 L232.49,1.2 L232.49,60.186 L230.054,60.186 L230.054,1.2 L212.654,1.2 L212.654,56.88 C212.654,60.824 213.553,64.217 215.351,67.059 C217.149,69.901 219.556,72.018 222.572,73.41 L222.572,73.41 L222.572,123 L239.972,123 Z M270.596,123.522 C276.512,123.522 281.152,121.869 284.516,118.563 C287.88,115.257 289.562,110.82 289.562,105.252 L289.562,105.252 L289.562,18.948 C289.562,13.38 287.909,8.943 284.603,5.637 C281.297,2.331 276.86,0.678 271.292,0.678 C265.376,0.678 260.736,2.331 257.372,5.637 C254.008,8.943 252.326,13.38 252.326,18.948 L252.326,18.948 L252.326,105.252 C252.326,110.82 253.979,115.257 257.285,118.563 C260.591,121.869 265.028,123.522 270.596,123.522 Z M272.162,108.558 L269.726,108.558 L269.726,15.642 L272.162,15.642 L272.162,108.558 Z M310.268,123.522 C316.184,123.522 320.824,121.869 324.188,118.563 C327.552,115.257 329.234,110.82 329.234,105.252 L329.234,105.252 L329.234,1.2 L311.834,1.2 L311.834,108.558 L309.398,108.558 L309.398,1.2 L291.998,1.2 L291.998,105.252 C291.998,110.82 293.651,115.257 296.957,118.563 C300.263,121.869 304.7,123.522 310.268,123.522 Z" id="THANKYOU" fill="#FF008E" fill-rule="nonzero"></path>
    </g>
</svg>